<?xml version="1.0" encoding="utf-8"?>
<!-- Generator: Adobe Illustrator 22.1.0, SVG Export Plug-In . SVG Version: 6.00 Build 0)  -->
<svg version="1.1" id="Capa_1" xmlns="http://www.w3.org/2000/svg" xmlns:xlink="http://www.w3.org/1999/xlink" x="0px" y="0px"
	 viewBox="0 0 97.8 97.8" style="enable-background:new 0 0 97.8 97.8;" xml:space="preserve">
<style type="text/css">
	.st0{fill:#0DA011;}
</style>
<g>
	<g>
		<path class="st0" d="M25.1,43.9c-1-0.8-2.2-1.2-3.4-1.2c-3.1,0-5.6,2.5-5.6,5.6c0,1.8,0.9,3.4,2.3,4.5
			C19.5,49.4,21.9,46.4,25.1,43.9z"/>
		<path class="st0" d="M72.7,30.1c2.3,0,4.2-1.9,4.2-4.2s-1.9-4.2-4.2-4.2c-2.3,0-4.2,1.9-4.2,4.2S70.5,30.1,72.7,30.1z"/>
		<path class="st0" d="M48.9,0C21.9,0,0,21.9,0,48.9s21.9,48.9,48.9,48.9s48.9-21.9,48.9-48.9S75.9,0,48.9,0z M79.7,55
			c0.1,0.8,0.2,1.5,0.2,2.3c0,11.4-14,20.7-31.2,20.7c-17.2,0-31.2-9.3-31.2-20.7c0-0.8,0.1-1.7,0.2-2.5c-2.3-1.4-3.8-3.9-3.8-6.7
			c0-4.3,3.5-7.7,7.7-7.7c1.9,0,3.8,0.8,5.2,2.1c5.5-3.6,13-5.8,21.3-5.9L53,21.4c0.2-0.5,0.7-0.9,1.3-0.7l12.6,3
			c0.9-2.4,3.2-4,5.9-4c3.5,0,6.3,2.8,6.3,6.3s-2.8,6.3-6.3,6.3c-3.5,0-6.3-2.8-6.3-6.3c0-0.1,0-0.1,0-0.2L54.7,23l-4.3,13.7
			c7.9,0.3,15.1,2.5,20.3,6c1.4-1.4,3.3-2.2,5.3-2.2c4.3,0,7.7,3.5,7.7,7.7C83.8,51.1,82.2,53.7,79.7,55z"/>
		<path class="st0" d="M33.7,53.5c0-2.5,2.1-4.6,4.6-4.6s4.6,2.1,4.6,4.6s-2.1,4.6-4.6,4.6S33.7,56.1,33.7,53.5z M60,67.2
			c-2.3,2.3-6,3.4-11.1,3.4c0,0,0,0,0,0s0,0,0,0c-5.2,0-8.8-1.1-11.1-3.4c-0.4-0.4-0.4-1.1,0-1.5c0.4-0.4,1.1-0.4,1.5,0
			c1.9,1.9,5,2.8,9.6,2.8c0,0,0,0,0,0s0,0,0,0c4.6,0,7.7-0.9,9.6-2.8c0.4-0.4,1.1-0.4,1.5,0C60.5,66.1,60.5,66.8,60,67.2z
			 M59.5,58.1c-2.5,0-4.6-2.1-4.6-4.6s2.1-4.6,4.6-4.6s4.6,2.1,4.6,4.6S62,58.1,59.5,58.1z"/>
		<path class="st0" d="M76.1,42.7c-1.3,0-2.6,0.5-3.6,1.3c3.2,2.5,5.5,5.5,6.7,8.9c1.5-1,2.5-2.7,2.5-4.6
			C81.7,45.2,79.2,42.7,76.1,42.7z"/>
	</g>
</g>
<path class="st0" d="M34.7,45.6h22.7c0.6,0,1,0.4,1,0.8l0,0c0,0.5-0.4,0.8-1,0.8H34.7c-0.6,0-1-0.4-1-0.8l0,0
	C33.7,46,34.1,45.6,34.7,45.6z"/>
<path class="st0" d="M55.3,45.6h8.5c0.2,0,0.4,0.4,0.4,0.8l0,0c0,0.5-0.2,0.8-0.4,0.8h-8.5c-0.2,0-0.4-0.4-0.4-0.8l0,0
	C54.9,46,55.1,45.6,55.3,45.6z"/>
</svg>
